<svg width="40" height="41" viewBox="0 0 40 41" fill="none" xmlns="http://www.w3.org/2000/svg">
<path d="M11.4241 1.26547H11.9241V1.25586H27.8288C33.7934 1.25586 38.6759 6.24055 38.6759 12.3679V29.1419C38.6759 35.2695 33.7932 40.2539 27.8382 40.2539H11.4241C5.45816 40.2539 0.567627 35.2775 0.567627 29.1611V12.3775C0.567627 6.25071 5.45896 1.26547 11.4241 1.26547ZM2.57595 12.3861V12.3871V29.1707C2.57595 34.1568 6.50351 38.1875 11.4241 38.1875H27.8382C32.7415 38.1875 36.6676 34.1553 36.6676 29.1515V12.3775C36.6676 7.37326 32.7411 3.34151 27.8288 3.34151H11.4241C6.5113 3.34151 2.58588 7.37358 2.57595 12.3861ZM30.6603 8.45556C30.6603 7.86563 31.1143 7.41754 31.6645 7.41754C32.2146 7.41754 32.6686 7.86563 32.6686 8.45556C32.6686 9.04549 32.2146 9.49358 31.6645 9.49358C31.1143 9.49358 30.6603 9.04549 30.6603 8.45556ZM9.60201 20.7597C9.60201 15.1039 14.1267 10.4936 19.6312 10.4936C25.1356 10.4936 29.6603 15.1039 29.6603 20.7597C29.6603 26.4155 25.1356 31.0258 19.6312 31.0258C14.1267 31.0258 9.60201 26.4155 9.60201 20.7597ZM27.652 20.7597C27.652 16.2261 24.0918 12.5696 19.6312 12.5696C15.1705 12.5696 11.6103 16.2261 11.6103 20.7597C11.6103 25.2933 15.1705 28.9498 19.6312 28.9498C24.0918 28.9498 27.652 25.2933 27.652 20.7597Z" fill="black" stroke="black"/>
</svg>
