<svg width="41" height="41" viewBox="0 0 41 41" fill="none" xmlns="http://www.w3.org/2000/svg">
<path d="M34.8327 0.615234H6.4336C3.18924 0.615234 0.549805 3.2476 0.549805 6.48326V34.8063C0.549805 38.042 3.18924 40.6743 6.4336 40.6743H34.8327C38.0771 40.6743 40.7165 38.042 40.7165 34.8063V6.48326C40.7165 3.2476 38.0771 0.615234 34.8327 0.615234ZM38.363 34.8063C38.363 36.7476 36.7793 38.3271 34.8327 38.3271H6.4336C4.48705 38.3271 2.90332 36.7476 2.90332 34.8063V6.48326C2.90332 4.54192 4.48705 2.96245 6.4336 2.96245H34.8327C36.7793 2.96245 38.363 4.54192 38.363 6.48326V34.8063Z" fill="black"/>
<path d="M31.6777 29.6514C30.2411 29.6514 28.8147 29.6514 27.3662 29.6514C27.3662 29.5821 27.3662 29.5174 27.3662 29.4527C27.3662 27.1182 27.3659 24.7838 27.3665 22.4496C27.3665 21.9527 27.3296 21.462 27.2049 20.9773C26.6894 18.9788 24.4636 19.0956 23.5781 20.0427C23.1331 20.5188 22.8424 21.0567 22.8301 21.7216C22.8273 21.8797 22.8181 22.0382 22.8181 22.1964C22.8172 24.6124 22.8175 27.0287 22.8175 29.4448C22.8175 29.5101 22.8175 29.5753 22.8175 29.6501C21.3751 29.6501 19.949 29.6501 18.5137 29.6501C18.5137 25.1948 18.5137 20.7441 18.5137 16.2851C19.9465 16.2851 21.3726 16.2851 22.8153 16.2851C22.8153 16.8886 22.8153 17.4833 22.8153 18.0779C22.8267 18.0828 22.8381 18.088 22.8497 18.0929C22.8805 18.0513 22.9118 18.0102 22.9422 17.9682C23.3735 17.3692 23.8689 16.8383 24.5272 16.4794C25.2624 16.0782 26.0566 15.9436 26.8831 15.9675C27.7781 15.9936 28.6273 16.1949 29.3926 16.6765C30.3736 17.2938 30.9714 18.1972 31.3215 19.2807C31.5944 20.1252 31.6838 20.9963 31.6848 21.8785C31.6869 24.4172 31.6857 26.9561 31.6854 29.4947C31.6854 29.5444 31.6808 29.594 31.6777 29.6514Z" fill="black"/>
<path d="M15.884 29.6587C14.4524 29.6587 13.0346 29.6587 11.6033 29.6587C11.6033 25.2009 11.6033 20.7455 11.6033 16.2812C13.0266 16.2812 14.4484 16.2812 15.884 16.2812C15.884 20.7351 15.884 25.1901 15.884 29.6587Z" fill="black"/>
<path d="M13.9269 9.62891C15.2747 9.62707 16.2284 10.5855 16.233 11.9465C16.2373 13.293 15.2691 14.246 13.8953 14.2466C12.5543 14.2475 11.5982 13.2887 11.5957 11.9413C11.5932 10.5929 12.5632 9.63075 13.9269 9.62891Z" fill="black"/>
</svg>
